<mxfile host="app.diagrams.net" modified="2023-06-18T09:00:36.386Z" agent="Mozilla/5.0 (Windows NT 10.0; Win64; x64) AppleWebKit/537.36 (KHTML, like Gecko) Chrome/114.0.0.0 Safari/537.36" etag="Oo-SRkhixXRgYvOQTzvs" version="21.3.4" type="github">
  <diagram name="第 1 页" id="zGx08L-uwlAG6v2fRiN6">
    <mxGraphModel dx="4344" dy="2071" grid="0" gridSize="10" guides="1" tooltips="1" connect="1" arrows="1" fold="1" page="0" pageScale="1" pageWidth="827" pageHeight="1169" math="0" shadow="0">
      <root>
        <mxCell id="0" />
        <mxCell id="1" parent="0" />
        <mxCell id="74TIoKvMA1h-3jAQi-SO-28" value="" style="edgeStyle=orthogonalEdgeStyle;rounded=0;orthogonalLoop=1;jettySize=auto;html=1;" parent="1" source="74TIoKvMA1h-3jAQi-SO-26" target="74TIoKvMA1h-3jAQi-SO-27" edge="1">
          <mxGeometry relative="1" as="geometry" />
        </mxCell>
        <mxCell id="74TIoKvMA1h-3jAQi-SO-26" value="HPS通过Avalon配置DDR3写数据首地址及图像尺寸" style="rounded=0;whiteSpace=wrap;html=1;" parent="1" vertex="1">
          <mxGeometry x="294" y="526" width="120" height="60" as="geometry" />
        </mxCell>
        <mxCell id="74TIoKvMA1h-3jAQi-SO-30" value="" style="edgeStyle=orthogonalEdgeStyle;rounded=0;orthogonalLoop=1;jettySize=auto;html=1;" parent="1" source="74TIoKvMA1h-3jAQi-SO-27" target="74TIoKvMA1h-3jAQi-SO-29" edge="1">
          <mxGeometry relative="1" as="geometry" />
        </mxCell>
        <mxCell id="74TIoKvMA1h-3jAQi-SO-27" value="HPS通过Avalon配置寄存器使能dvp_ddr模块" style="rounded=0;whiteSpace=wrap;html=1;" parent="1" vertex="1">
          <mxGeometry x="294" y="666" width="120" height="60" as="geometry" />
        </mxCell>
        <mxCell id="74TIoKvMA1h-3jAQi-SO-32" value="" style="edgeStyle=orthogonalEdgeStyle;rounded=0;orthogonalLoop=1;jettySize=auto;html=1;" parent="1" source="74TIoKvMA1h-3jAQi-SO-29" target="74TIoKvMA1h-3jAQi-SO-31" edge="1">
          <mxGeometry relative="1" as="geometry" />
        </mxCell>
        <mxCell id="74TIoKvMA1h-3jAQi-SO-29" value="HPS通过Avalon配置状态寄存器开始采集一帧图像" style="rounded=0;whiteSpace=wrap;html=1;" parent="1" vertex="1">
          <mxGeometry x="294" y="806" width="120" height="60" as="geometry" />
        </mxCell>
        <mxCell id="74TIoKvMA1h-3jAQi-SO-34" value="" style="edgeStyle=orthogonalEdgeStyle;rounded=0;orthogonalLoop=1;jettySize=auto;html=1;" parent="1" source="74TIoKvMA1h-3jAQi-SO-31" target="74TIoKvMA1h-3jAQi-SO-33" edge="1">
          <mxGeometry relative="1" as="geometry" />
        </mxCell>
        <mxCell id="74TIoKvMA1h-3jAQi-SO-31" value="dvp_capture模块解析dvp时序并存入fifo" style="rounded=0;whiteSpace=wrap;html=1;" parent="1" vertex="1">
          <mxGeometry x="294" y="946" width="120" height="60" as="geometry" />
        </mxCell>
        <mxCell id="74TIoKvMA1h-3jAQi-SO-36" value="" style="edgeStyle=orthogonalEdgeStyle;rounded=0;orthogonalLoop=1;jettySize=auto;html=1;" parent="1" source="74TIoKvMA1h-3jAQi-SO-33" target="74TIoKvMA1h-3jAQi-SO-35" edge="1">
          <mxGeometry relative="1" as="geometry" />
        </mxCell>
        <mxCell id="74TIoKvMA1h-3jAQi-SO-33" value="ddr3_write模块读取fifo数据将数据通过avalon-mm总线写入ddr3中" style="rounded=0;whiteSpace=wrap;html=1;" parent="1" vertex="1">
          <mxGeometry x="294" y="1086" width="120" height="60" as="geometry" />
        </mxCell>
        <mxCell id="74TIoKvMA1h-3jAQi-SO-38" value="" style="edgeStyle=orthogonalEdgeStyle;rounded=0;orthogonalLoop=1;jettySize=auto;html=1;entryX=0.007;entryY=0.356;entryDx=0;entryDy=0;entryPerimeter=0;" parent="1" source="74TIoKvMA1h-3jAQi-SO-35" target="74TIoKvMA1h-3jAQi-SO-29" edge="1">
          <mxGeometry relative="1" as="geometry">
            <mxPoint x="214" y="1256" as="targetPoint" />
            <Array as="points">
              <mxPoint x="159" y="1256" />
              <mxPoint x="159" y="827" />
            </Array>
          </mxGeometry>
        </mxCell>
        <mxCell id="74TIoKvMA1h-3jAQi-SO-35" value="接收完一帧图像后将状态寄存器置0" style="rounded=0;whiteSpace=wrap;html=1;" parent="1" vertex="1">
          <mxGeometry x="294" y="1226" width="120" height="60" as="geometry" />
        </mxCell>
        <mxCell id="S6oDs6XYYXPuat0dcQm--29" value="" style="edgeStyle=orthogonalEdgeStyle;rounded=0;orthogonalLoop=1;jettySize=auto;html=1;" parent="1" source="S6oDs6XYYXPuat0dcQm--30" target="S6oDs6XYYXPuat0dcQm--32" edge="1">
          <mxGeometry relative="1" as="geometry" />
        </mxCell>
        <mxCell id="S6oDs6XYYXPuat0dcQm--30" value="HPS通过Avalon配置DDR3读数据首地址及图像尺寸" style="rounded=0;whiteSpace=wrap;html=1;" parent="1" vertex="1">
          <mxGeometry x="1491" y="614" width="120" height="60" as="geometry" />
        </mxCell>
        <mxCell id="S6oDs6XYYXPuat0dcQm--31" value="" style="edgeStyle=orthogonalEdgeStyle;rounded=0;orthogonalLoop=1;jettySize=auto;html=1;" parent="1" source="S6oDs6XYYXPuat0dcQm--32" target="S6oDs6XYYXPuat0dcQm--34" edge="1">
          <mxGeometry relative="1" as="geometry" />
        </mxCell>
        <mxCell id="S6oDs6XYYXPuat0dcQm--32" value="HPS通过Avalon配置寄存器使能dvp_ddr模块" style="rounded=0;whiteSpace=wrap;html=1;" parent="1" vertex="1">
          <mxGeometry x="1491" y="754" width="120" height="60" as="geometry" />
        </mxCell>
        <mxCell id="S6oDs6XYYXPuat0dcQm--33" value="" style="edgeStyle=orthogonalEdgeStyle;rounded=0;orthogonalLoop=1;jettySize=auto;html=1;" parent="1" source="S6oDs6XYYXPuat0dcQm--34" target="S6oDs6XYYXPuat0dcQm--36" edge="1">
          <mxGeometry relative="1" as="geometry" />
        </mxCell>
        <mxCell id="S6oDs6XYYXPuat0dcQm--34" value="HPS通过Avalon配置状态寄存器开始采集一帧图像" style="rounded=0;whiteSpace=wrap;html=1;" parent="1" vertex="1">
          <mxGeometry x="1491" y="894" width="120" height="60" as="geometry" />
        </mxCell>
        <mxCell id="S6oDs6XYYXPuat0dcQm--35" value="" style="edgeStyle=orthogonalEdgeStyle;rounded=0;orthogonalLoop=1;jettySize=auto;html=1;" parent="1" source="S6oDs6XYYXPuat0dcQm--36" target="S6oDs6XYYXPuat0dcQm--38" edge="1">
          <mxGeometry relative="1" as="geometry" />
        </mxCell>
        <mxCell id="S6oDs6XYYXPuat0dcQm--36" value="ddr_read模块读取图像数据并存入fifo" style="rounded=0;whiteSpace=wrap;html=1;" parent="1" vertex="1">
          <mxGeometry x="1491" y="1034" width="120" height="60" as="geometry" />
        </mxCell>
        <mxCell id="S6oDs6XYYXPuat0dcQm--37" value="" style="edgeStyle=orthogonalEdgeStyle;rounded=0;orthogonalLoop=1;jettySize=auto;html=1;" parent="1" source="S6oDs6XYYXPuat0dcQm--38" target="S6oDs6XYYXPuat0dcQm--40" edge="1">
          <mxGeometry relative="1" as="geometry" />
        </mxCell>
        <mxCell id="S6oDs6XYYXPuat0dcQm--38" value="vga_inf模块读取FIFO中数据转换为VGA时序发送给vhdmi模块" style="rounded=0;whiteSpace=wrap;html=1;" parent="1" vertex="1">
          <mxGeometry x="1491" y="1174" width="120" height="60" as="geometry" />
        </mxCell>
        <mxCell id="S6oDs6XYYXPuat0dcQm--39" value="" style="edgeStyle=orthogonalEdgeStyle;rounded=0;orthogonalLoop=1;jettySize=auto;html=1;entryX=0.007;entryY=0.356;entryDx=0;entryDy=0;entryPerimeter=0;" parent="1" source="S6oDs6XYYXPuat0dcQm--40" target="S6oDs6XYYXPuat0dcQm--34" edge="1">
          <mxGeometry relative="1" as="geometry">
            <mxPoint x="1411" y="1344" as="targetPoint" />
            <Array as="points">
              <mxPoint x="1356" y="1344" />
              <mxPoint x="1356" y="915" />
            </Array>
          </mxGeometry>
        </mxCell>
        <mxCell id="S6oDs6XYYXPuat0dcQm--40" value="发送完一帧图像后重新读取一帧图像" style="rounded=0;whiteSpace=wrap;html=1;" parent="1" vertex="1">
          <mxGeometry x="1491" y="1314" width="120" height="60" as="geometry" />
        </mxCell>
        <mxCell id="YACVjOdtnOtZpii6CCk0-3" value="" style="edgeStyle=orthogonalEdgeStyle;rounded=0;orthogonalLoop=1;jettySize=auto;html=1;" parent="1" source="YACVjOdtnOtZpii6CCk0-1" target="YACVjOdtnOtZpii6CCk0-2" edge="1">
          <mxGeometry relative="1" as="geometry" />
        </mxCell>
        <mxCell id="YACVjOdtnOtZpii6CCk0-1" value="IDLE" style="ellipse;whiteSpace=wrap;html=1;aspect=fixed;" parent="1" vertex="1">
          <mxGeometry x="292" y="1416" width="80" height="80" as="geometry" />
        </mxCell>
        <mxCell id="YACVjOdtnOtZpii6CCk0-5" value="" style="edgeStyle=orthogonalEdgeStyle;rounded=0;orthogonalLoop=1;jettySize=auto;html=1;" parent="1" source="YACVjOdtnOtZpii6CCk0-2" target="YACVjOdtnOtZpii6CCk0-4" edge="1">
          <mxGeometry relative="1" as="geometry" />
        </mxCell>
        <mxCell id="YACVjOdtnOtZpii6CCk0-2" value="CAPTURE" style="ellipse;whiteSpace=wrap;html=1;aspect=fixed;" parent="1" vertex="1">
          <mxGeometry x="292" y="1576" width="80" height="80" as="geometry" />
        </mxCell>
        <mxCell id="YACVjOdtnOtZpii6CCk0-11" value="" style="edgeStyle=orthogonalEdgeStyle;rounded=0;orthogonalLoop=1;jettySize=auto;html=1;entryX=0.038;entryY=0.338;entryDx=0;entryDy=0;entryPerimeter=0;" parent="1" source="YACVjOdtnOtZpii6CCk0-4" target="YACVjOdtnOtZpii6CCk0-1" edge="1">
          <mxGeometry relative="1" as="geometry">
            <mxPoint x="212" y="1776" as="targetPoint" />
            <Array as="points">
              <mxPoint x="193" y="1776" />
              <mxPoint x="193" y="1443" />
            </Array>
          </mxGeometry>
        </mxCell>
        <mxCell id="YACVjOdtnOtZpii6CCk0-4" value="DUMMY" style="ellipse;whiteSpace=wrap;html=1;aspect=fixed;" parent="1" vertex="1">
          <mxGeometry x="292" y="1736" width="80" height="80" as="geometry" />
        </mxCell>
        <mxCell id="YACVjOdtnOtZpii6CCk0-8" value="reg_ctrl_dvp_en[1] == 1&#39;b1&lt;br&gt;&amp;nbsp;&amp;amp;&amp;amp; dvp_vsync == 1&#39;b1" style="text;html=1;align=center;verticalAlign=middle;resizable=0;points=[];autosize=1;strokeColor=none;fillColor=none;" parent="1" vertex="1">
          <mxGeometry x="322" y="1510" width="160" height="41" as="geometry" />
        </mxCell>
        <mxCell id="YACVjOdtnOtZpii6CCk0-9" value="read_data_cnt == ctrl_dvp_img_size - 1&#39;b1" style="text;html=1;align=center;verticalAlign=middle;resizable=0;points=[];autosize=1;strokeColor=none;fillColor=none;" parent="1" vertex="1">
          <mxGeometry x="331" y="1672" width="244" height="26" as="geometry" />
        </mxCell>
        <mxCell id="YACVjOdtnOtZpii6CCk0-12" value="reg_ctrl_dvp_en[1] == 1&#39;b0" style="text;html=1;align=center;verticalAlign=middle;resizable=0;points=[];autosize=1;strokeColor=none;fillColor=none;" parent="1" vertex="1">
          <mxGeometry x="112" y="1612" width="160" height="26" as="geometry" />
        </mxCell>
        <mxCell id="YACVjOdtnOtZpii6CCk0-13" value="" style="edgeStyle=orthogonalEdgeStyle;rounded=0;orthogonalLoop=1;jettySize=auto;html=1;" parent="1" source="YACVjOdtnOtZpii6CCk0-14" target="YACVjOdtnOtZpii6CCk0-16" edge="1">
          <mxGeometry relative="1" as="geometry" />
        </mxCell>
        <mxCell id="YACVjOdtnOtZpii6CCk0-14" value="IDLE" style="ellipse;whiteSpace=wrap;html=1;aspect=fixed;" parent="1" vertex="1">
          <mxGeometry x="284" y="1920" width="80" height="80" as="geometry" />
        </mxCell>
        <mxCell id="YACVjOdtnOtZpii6CCk0-15" value="" style="edgeStyle=orthogonalEdgeStyle;rounded=0;orthogonalLoop=1;jettySize=auto;html=1;" parent="1" source="YACVjOdtnOtZpii6CCk0-16" target="YACVjOdtnOtZpii6CCk0-18" edge="1">
          <mxGeometry relative="1" as="geometry" />
        </mxCell>
        <mxCell id="YACVjOdtnOtZpii6CCk0-16" value="WAIT_FIFO" style="ellipse;whiteSpace=wrap;html=1;aspect=fixed;" parent="1" vertex="1">
          <mxGeometry x="284" y="2080" width="80" height="80" as="geometry" />
        </mxCell>
        <mxCell id="YACVjOdtnOtZpii6CCk0-17" value="" style="edgeStyle=orthogonalEdgeStyle;rounded=0;orthogonalLoop=1;jettySize=auto;html=1;entryX=0.038;entryY=0.338;entryDx=0;entryDy=0;entryPerimeter=0;" parent="1" source="YACVjOdtnOtZpii6CCk0-18" target="YACVjOdtnOtZpii6CCk0-14" edge="1">
          <mxGeometry relative="1" as="geometry">
            <mxPoint x="204" y="2280" as="targetPoint" />
            <Array as="points">
              <mxPoint x="185" y="2280" />
              <mxPoint x="185" y="1947" />
            </Array>
          </mxGeometry>
        </mxCell>
        <mxCell id="YACVjOdtnOtZpii6CCk0-23" value="" style="edgeStyle=orthogonalEdgeStyle;rounded=0;orthogonalLoop=1;jettySize=auto;html=1;entryX=0.975;entryY=0.413;entryDx=0;entryDy=0;entryPerimeter=0;" parent="1" source="YACVjOdtnOtZpii6CCk0-18" target="YACVjOdtnOtZpii6CCk0-16" edge="1">
          <mxGeometry relative="1" as="geometry">
            <mxPoint x="444" y="2280" as="targetPoint" />
            <Array as="points">
              <mxPoint x="553" y="2280" />
              <mxPoint x="553" y="2113" />
            </Array>
          </mxGeometry>
        </mxCell>
        <mxCell id="YACVjOdtnOtZpii6CCk0-18" value="WRITE" style="ellipse;whiteSpace=wrap;html=1;aspect=fixed;" parent="1" vertex="1">
          <mxGeometry x="284" y="2240" width="80" height="80" as="geometry" />
        </mxCell>
        <mxCell id="YACVjOdtnOtZpii6CCk0-19" value="ctrl_ddr3_en == 1&#39;b1" style="text;html=1;align=center;verticalAlign=middle;resizable=0;points=[];autosize=1;strokeColor=none;fillColor=none;" parent="1" vertex="1">
          <mxGeometry x="330" y="2022" width="128" height="26" as="geometry" />
        </mxCell>
        <mxCell id="YACVjOdtnOtZpii6CCk0-20" value="ffio_ddr_aempty == 1&#39;b0" style="text;html=1;align=center;verticalAlign=middle;resizable=0;points=[];autosize=1;strokeColor=none;fillColor=none;" parent="1" vertex="1">
          <mxGeometry x="331" y="2177" width="147" height="26" as="geometry" />
        </mxCell>
        <mxCell id="YACVjOdtnOtZpii6CCk0-21" value="avl_waitrequest == 1&#39;b0 &amp;amp;&amp;amp; data_cnt == 5&#39;d15 &lt;br&gt;&amp;amp;&amp;amp; write_data_cnt != max_num - 1&#39;b1" style="text;html=1;align=center;verticalAlign=middle;resizable=0;points=[];autosize=1;strokeColor=none;fillColor=none;" parent="1" vertex="1">
          <mxGeometry x="504" y="2173" width="263" height="41" as="geometry" />
        </mxCell>
        <mxCell id="YACVjOdtnOtZpii6CCk0-24" value="avl_waitrequest == 1&#39;b0 &amp;amp;&amp;amp; data_cnt == 5&#39;d15 &lt;br&gt;&amp;amp;&amp;amp; write_data_cnt == max_num - 1&#39;b1" style="text;html=1;align=center;verticalAlign=middle;resizable=0;points=[];autosize=1;strokeColor=none;fillColor=none;" parent="1" vertex="1">
          <mxGeometry x="15" y="2110" width="263" height="41" as="geometry" />
        </mxCell>
        <mxCell id="74TIoKvMA1h-3jAQi-SO-15" value="" style="rounded=0;whiteSpace=wrap;html=1;fontStyle=1" parent="1" vertex="1">
          <mxGeometry x="-422.02962962962965" y="-144" width="661.6296296296297" height="380" as="geometry" />
        </mxCell>
        <mxCell id="74TIoKvMA1h-3jAQi-SO-1" value="&lt;font style=&quot;font-size: 24px;&quot;&gt;dvp_&lt;br&gt;capture&lt;/font&gt;" style="rounded=0;whiteSpace=wrap;html=1;fontStyle=1" parent="1" vertex="1">
          <mxGeometry x="-331.8074074074074" y="-14" width="105.25925925925927" height="200" as="geometry" />
        </mxCell>
        <mxCell id="74TIoKvMA1h-3jAQi-SO-2" value="&lt;font style=&quot;font-size: 24px;&quot;&gt;async_&lt;br&gt;fifo&lt;/font&gt;" style="rounded=0;whiteSpace=wrap;html=1;fontStyle=1" parent="1" vertex="1">
          <mxGeometry x="-151.36296296296297" y="-14" width="105.25925925925927" height="200" as="geometry" />
        </mxCell>
        <mxCell id="74TIoKvMA1h-3jAQi-SO-7" value="" style="edgeStyle=orthogonalEdgeStyle;rounded=0;orthogonalLoop=1;jettySize=auto;html=1;fontStyle=1" parent="1" source="74TIoKvMA1h-3jAQi-SO-1" target="74TIoKvMA1h-3jAQi-SO-2" edge="1">
          <mxGeometry relative="1" as="geometry" />
        </mxCell>
        <mxCell id="74TIoKvMA1h-3jAQi-SO-3" value="&lt;font style=&quot;font-size: 24px;&quot;&gt;ddr3_&lt;br&gt;write&lt;/font&gt;" style="rounded=0;whiteSpace=wrap;html=1;fontStyle=1" parent="1" vertex="1">
          <mxGeometry x="29.081481481481546" y="-14" width="105.25925925925927" height="200" as="geometry" />
        </mxCell>
        <mxCell id="74TIoKvMA1h-3jAQi-SO-8" value="" style="edgeStyle=orthogonalEdgeStyle;rounded=0;orthogonalLoop=1;jettySize=auto;html=1;fontStyle=1" parent="1" source="74TIoKvMA1h-3jAQi-SO-2" target="74TIoKvMA1h-3jAQi-SO-3" edge="1">
          <mxGeometry relative="1" as="geometry" />
        </mxCell>
        <mxCell id="74TIoKvMA1h-3jAQi-SO-4" value="&lt;font style=&quot;font-size: 24px;&quot;&gt;dvp_ddr3_ctrl&lt;/font&gt;" style="rounded=0;whiteSpace=wrap;html=1;fontStyle=1" parent="1" vertex="1">
          <mxGeometry x="-331.8074074074074" y="-114" width="481.1851851851852" height="60" as="geometry" />
        </mxCell>
        <mxCell id="74TIoKvMA1h-3jAQi-SO-12" value="" style="endArrow=classic;html=1;rounded=0;entryX=0.5;entryY=0;entryDx=0;entryDy=0;exitX=0.858;exitY=1.003;exitDx=0;exitDy=0;exitPerimeter=0;fontStyle=1" parent="1" source="74TIoKvMA1h-3jAQi-SO-4" target="74TIoKvMA1h-3jAQi-SO-3" edge="1">
          <mxGeometry width="50" height="50" relative="1" as="geometry">
            <mxPoint x="89.2296296296297" y="-54" as="sourcePoint" />
            <mxPoint x="269.67407407407404" y="-54" as="targetPoint" />
          </mxGeometry>
        </mxCell>
        <mxCell id="74TIoKvMA1h-3jAQi-SO-17" value="&lt;font style=&quot;font-size: 48px;&quot;&gt;DVP时序&lt;/font&gt;" style="text;html=1;align=center;verticalAlign=middle;resizable=0;points=[];autosize=1;strokeColor=none;fillColor=none;fontStyle=1" parent="1" vertex="1">
          <mxGeometry x="-661" y="52" width="213" height="70" as="geometry" />
        </mxCell>
        <mxCell id="74TIoKvMA1h-3jAQi-SO-21" value="&lt;font style=&quot;font-size: 36px;&quot;&gt;avalon&lt;/font&gt;" style="rounded=0;whiteSpace=wrap;html=1;fontStyle=1" parent="1" vertex="1">
          <mxGeometry x="-422.02962962962965" y="-234" width="661.6296296296297" height="50" as="geometry" />
        </mxCell>
        <mxCell id="1EbUDmqzu0pK0JdDeTI_-3" style="edgeStyle=orthogonalEdgeStyle;rounded=0;orthogonalLoop=1;jettySize=auto;html=1;exitX=1;exitY=0.5;exitDx=0;exitDy=0;" parent="1" edge="1">
          <mxGeometry relative="1" as="geometry">
            <mxPoint x="418.99999999999955" y="85" as="sourcePoint" />
            <mxPoint x="478.0007407407411" y="85" as="targetPoint" />
          </mxGeometry>
        </mxCell>
        <mxCell id="74TIoKvMA1h-3jAQi-SO-22" value="&lt;font style=&quot;font-size: 36px;&quot;&gt;avalon&lt;/font&gt;" style="rounded=0;whiteSpace=wrap;html=1;fontStyle=1" parent="1" vertex="1">
          <mxGeometry x="284.71000000000004" y="-144" width="134.29" height="380" as="geometry" />
        </mxCell>
        <mxCell id="74TIoKvMA1h-3jAQi-SO-23" value="" style="endArrow=classic;html=1;rounded=0;fontStyle=1" parent="1" target="74TIoKvMA1h-3jAQi-SO-1" edge="1">
          <mxGeometry width="50" height="50" relative="1" as="geometry">
            <mxPoint x="-467.14074074074074" y="86" as="sourcePoint" />
            <mxPoint x="-391.9555555555555" y="36" as="targetPoint" />
          </mxGeometry>
        </mxCell>
        <mxCell id="74TIoKvMA1h-3jAQi-SO-24" value="" style="endArrow=classic;html=1;rounded=0;exitX=0.5;exitY=1;exitDx=0;exitDy=0;fontStyle=1" parent="1" source="74TIoKvMA1h-3jAQi-SO-21" target="74TIoKvMA1h-3jAQi-SO-4" edge="1">
          <mxGeometry width="50" height="50" relative="1" as="geometry">
            <mxPoint x="-136.3259259259259" y="-134" as="sourcePoint" />
            <mxPoint x="-61.14074074074074" y="-184" as="targetPoint" />
          </mxGeometry>
        </mxCell>
        <mxCell id="74TIoKvMA1h-3jAQi-SO-25" value="" style="endArrow=classic;html=1;rounded=0;entryX=-0.005;entryY=0.607;entryDx=0;entryDy=0;entryPerimeter=0;fontStyle=1" parent="1" target="74TIoKvMA1h-3jAQi-SO-22" edge="1">
          <mxGeometry width="50" height="50" relative="1" as="geometry">
            <mxPoint x="134.34074074074078" y="86" as="sourcePoint" />
            <mxPoint x="209.5259259259259" y="36" as="targetPoint" />
          </mxGeometry>
        </mxCell>
        <mxCell id="S6oDs6XYYXPuat0dcQm--1" value="" style="endArrow=classic;html=1;rounded=0;fontStyle=1" parent="1" edge="1">
          <mxGeometry width="50" height="50" relative="1" as="geometry">
            <mxPoint x="-91.65088888888886" y="-331" as="sourcePoint" />
            <mxPoint x="-91.65088888888886" y="-236" as="targetPoint" />
          </mxGeometry>
        </mxCell>
        <mxCell id="S6oDs6XYYXPuat0dcQm--2" value="&lt;font style=&quot;font-size: 48px;&quot;&gt;HPS&lt;/font&gt;" style="text;html=1;align=center;verticalAlign=middle;resizable=0;points=[];autosize=1;strokeColor=none;fillColor=none;fontStyle=1" parent="1" vertex="1">
          <mxGeometry x="-150.63333333333333" y="-374" width="117" height="70" as="geometry" />
        </mxCell>
        <mxCell id="S6oDs6XYYXPuat0dcQm--5" value="&lt;font style=&quot;font-size: 48px;&quot;&gt;DDR&lt;/font&gt;" style="text;html=1;align=center;verticalAlign=middle;resizable=0;points=[];autosize=1;strokeColor=none;fillColor=none;fontStyle=1" parent="1" vertex="1">
          <mxGeometry x="486.00074074074087" y="52" width="122" height="70" as="geometry" />
        </mxCell>
        <mxCell id="S6oDs6XYYXPuat0dcQm--6" value="" style="rounded=0;whiteSpace=wrap;html=1;fontStyle=1" parent="1" vertex="1">
          <mxGeometry x="1111.3372093023256" y="-132" width="625.2093023255813" height="407" as="geometry" />
        </mxCell>
        <mxCell id="S6oDs6XYYXPuat0dcQm--8" value="&lt;font style=&quot;font-size: 24px;&quot;&gt;ddr3_&lt;br&gt;read&lt;/font&gt;" style="rounded=0;whiteSpace=wrap;html=1;fontStyle=1" parent="1" vertex="1">
          <mxGeometry x="1196.593023255814" y="-2" width="99.46511627906976" height="200" as="geometry" />
        </mxCell>
        <mxCell id="S6oDs6XYYXPuat0dcQm--10" value="&lt;font style=&quot;font-size: 24px;&quot;&gt;async_&lt;br&gt;fifo&lt;/font&gt;" style="rounded=0;whiteSpace=wrap;html=1;fontStyle=1" parent="1" vertex="1">
          <mxGeometry x="1367.1046511627906" y="-2" width="99.46511627906976" height="200" as="geometry" />
        </mxCell>
        <mxCell id="S6oDs6XYYXPuat0dcQm--7" value="" style="edgeStyle=orthogonalEdgeStyle;rounded=0;orthogonalLoop=1;jettySize=auto;html=1;fontStyle=1" parent="1" source="S6oDs6XYYXPuat0dcQm--8" target="S6oDs6XYYXPuat0dcQm--10" edge="1">
          <mxGeometry relative="1" as="geometry" />
        </mxCell>
        <mxCell id="S6oDs6XYYXPuat0dcQm--11" value="&lt;font style=&quot;font-size: 24px;&quot;&gt;vga_&lt;br&gt;inf&lt;/font&gt;" style="rounded=0;whiteSpace=wrap;html=1;fontStyle=1" parent="1" vertex="1">
          <mxGeometry x="1537.6162790697674" y="-2" width="99.46511627906976" height="200" as="geometry" />
        </mxCell>
        <mxCell id="S6oDs6XYYXPuat0dcQm--9" value="" style="edgeStyle=orthogonalEdgeStyle;rounded=0;orthogonalLoop=1;jettySize=auto;html=1;fontStyle=1" parent="1" source="S6oDs6XYYXPuat0dcQm--10" target="S6oDs6XYYXPuat0dcQm--11" edge="1">
          <mxGeometry relative="1" as="geometry" />
        </mxCell>
        <mxCell id="S6oDs6XYYXPuat0dcQm--12" value="&lt;font style=&quot;font-size: 24px;&quot;&gt;ddr3_vga_ctrl&lt;/font&gt;" style="rounded=0;whiteSpace=wrap;html=1;fontStyle=1" parent="1" vertex="1">
          <mxGeometry x="1196.593023255814" y="-102" width="454.6976744186046" height="60" as="geometry" />
        </mxCell>
        <mxCell id="S6oDs6XYYXPuat0dcQm--13" value="" style="endArrow=classic;html=1;rounded=0;entryX=0.5;entryY=0;entryDx=0;entryDy=0;exitX=0.858;exitY=1.003;exitDx=0;exitDy=0;exitPerimeter=0;fontStyle=1" parent="1" source="S6oDs6XYYXPuat0dcQm--12" target="S6oDs6XYYXPuat0dcQm--11" edge="1">
          <mxGeometry width="50" height="50" relative="1" as="geometry">
            <mxPoint x="1594.453488372093" y="-42" as="sourcePoint" />
            <mxPoint x="1764.9651162790697" y="-42" as="targetPoint" />
          </mxGeometry>
        </mxCell>
        <mxCell id="S6oDs6XYYXPuat0dcQm--14" value="&lt;font style=&quot;font-size: 48px;&quot;&gt;VGA时序&lt;/font&gt;" style="text;html=1;align=center;verticalAlign=middle;resizable=0;points=[];autosize=1;strokeColor=none;fillColor=none;fontStyle=1" parent="1" vertex="1">
          <mxGeometry x="1739.120930232558" y="66" width="218" height="70" as="geometry" />
        </mxCell>
        <mxCell id="S6oDs6XYYXPuat0dcQm--15" value="&lt;font style=&quot;font-size: 36px;&quot;&gt;avalon&lt;/font&gt;" style="rounded=0;whiteSpace=wrap;html=1;fontStyle=1" parent="1" vertex="1">
          <mxGeometry x="1111.3372093023256" y="-222" width="625.2093023255813" height="50" as="geometry" />
        </mxCell>
        <mxCell id="S6oDs6XYYXPuat0dcQm--16" value="&lt;font style=&quot;font-size: 36px;&quot;&gt;avalon&lt;/font&gt;" style="rounded=0;whiteSpace=wrap;html=1;fontStyle=1" parent="1" vertex="1">
          <mxGeometry x="942" y="-119" width="125.29" height="380" as="geometry" />
        </mxCell>
        <mxCell id="S6oDs6XYYXPuat0dcQm--17" value="" style="endArrow=classic;html=1;rounded=0;fontStyle=1" parent="1" target="S6oDs6XYYXPuat0dcQm--8" edge="1">
          <mxGeometry width="50" height="50" relative="1" as="geometry">
            <mxPoint x="1068.7093023255813" y="98" as="sourcePoint" />
            <mxPoint x="1139.7558139534883" y="48" as="targetPoint" />
          </mxGeometry>
        </mxCell>
        <mxCell id="S6oDs6XYYXPuat0dcQm--18" value="" style="endArrow=classic;html=1;rounded=0;exitX=0.5;exitY=1;exitDx=0;exitDy=0;fontStyle=1" parent="1" source="S6oDs6XYYXPuat0dcQm--15" target="S6oDs6XYYXPuat0dcQm--12" edge="1">
          <mxGeometry width="50" height="50" relative="1" as="geometry">
            <mxPoint x="1381.3139534883721" y="-122" as="sourcePoint" />
            <mxPoint x="1452.360465116279" y="-172" as="targetPoint" />
          </mxGeometry>
        </mxCell>
        <mxCell id="S6oDs6XYYXPuat0dcQm--20" value="" style="endArrow=classic;html=1;rounded=0;fontStyle=1" parent="1" edge="1">
          <mxGeometry width="50" height="50" relative="1" as="geometry">
            <mxPoint x="1423.5297906976743" y="-319" as="sourcePoint" />
            <mxPoint x="1423.5297906976743" y="-224" as="targetPoint" />
          </mxGeometry>
        </mxCell>
        <mxCell id="S6oDs6XYYXPuat0dcQm--21" value="&lt;font style=&quot;font-size: 48px;&quot;&gt;HPS&lt;/font&gt;" style="text;html=1;align=center;verticalAlign=middle;resizable=0;points=[];autosize=1;strokeColor=none;fillColor=none;fontStyle=1" parent="1" vertex="1">
          <mxGeometry x="1347.289534883721" y="-362" width="117" height="70" as="geometry" />
        </mxCell>
        <mxCell id="S6oDs6XYYXPuat0dcQm--22" value="" style="endArrow=classic;html=1;rounded=0;fontStyle=1" parent="1" edge="1">
          <mxGeometry width="50" height="50" relative="1" as="geometry">
            <mxPoint x="844.2023255813954" y="97.62" as="sourcePoint" />
            <mxPoint x="939" y="98" as="targetPoint" />
          </mxGeometry>
        </mxCell>
        <mxCell id="S6oDs6XYYXPuat0dcQm--23" value="&lt;font style=&quot;font-size: 48px;&quot;&gt;DDR&lt;/font&gt;" style="text;html=1;align=center;verticalAlign=middle;resizable=0;points=[];autosize=1;strokeColor=none;fillColor=none;fontStyle=1" parent="1" vertex="1">
          <mxGeometry x="736" y="64" width="122" height="70" as="geometry" />
        </mxCell>
        <mxCell id="S6oDs6XYYXPuat0dcQm--24" value="" style="endArrow=classic;html=1;rounded=0;fontStyle=1" parent="1" target="S6oDs6XYYXPuat0dcQm--14" edge="1">
          <mxGeometry width="50" height="50" relative="1" as="geometry">
            <mxPoint x="1635.6604651162788" y="100" as="sourcePoint" />
            <mxPoint x="1706.706976744186" y="50" as="targetPoint" />
          </mxGeometry>
        </mxCell>
        <mxCell id="S6oDs6XYYXPuat0dcQm--25" value="&lt;font style=&quot;font-size: 24px;&quot;&gt;clk_gen&lt;/font&gt;" style="rounded=0;whiteSpace=wrap;html=1;fontStyle=1" parent="1" vertex="1">
          <mxGeometry x="1537.6162790697674" y="209" width="100.8860465116279" height="52" as="geometry" />
        </mxCell>
        <mxCell id="S6oDs6XYYXPuat0dcQm--26" value="" style="endArrow=classic;html=1;rounded=0;fontStyle=1" parent="1" target="S6oDs6XYYXPuat0dcQm--27" edge="1">
          <mxGeometry width="50" height="50" relative="1" as="geometry">
            <mxPoint x="1638.5023255813953" y="237" as="sourcePoint" />
            <mxPoint x="1818.960465116279" y="237" as="targetPoint" />
          </mxGeometry>
        </mxCell>
        <mxCell id="S6oDs6XYYXPuat0dcQm--27" value="&lt;font style=&quot;font-size: 48px;&quot;&gt;VGA_CLK&lt;/font&gt;" style="text;html=1;align=center;verticalAlign=middle;resizable=0;points=[];autosize=1;strokeColor=none;fillColor=none;fontStyle=1" parent="1" vertex="1">
          <mxGeometry x="1730.0162790697673" y="203" width="247" height="70" as="geometry" />
        </mxCell>
      </root>
    </mxGraphModel>
  </diagram>
</mxfile>
